<svg width="100" height="91" viewBox="0 0 100 91" fill="none" xmlns="http://www.w3.org/2000/svg">
<path d="M24.5604 88.625C23.4212 90.3546 21.0855 90.8441 19.4461 89.5786C13.1671 84.7314 8.11645 78.4475 4.73263 71.2336C0.816683 62.8853 -0.714384 53.6167 0.308703 44.4525C1.33179 35.2883 4.86918 26.5855 10.5298 19.3063C16.1904 12.0271 23.7537 6.45508 32.3835 3.20621C41.0133 -0.0426674 50.3735 -0.841809 59.4291 0.897137C68.4848 2.63608 76.8832 6.84538 83.6958 13.0596C90.5085 19.2739 95.4699 27.2511 98.0317 36.1092C100.245 43.7636 100.593 51.8182 99.0692 59.6028C98.6715 61.6353 96.5928 62.8076 94.5958 62.2587C92.5988 61.7098 91.4424 59.6473 91.8132 57.6097C92.9861 51.1648 92.6562 44.5181 90.827 38.1928C88.6495 30.6634 84.4322 23.8828 78.6415 18.6007C72.8507 13.3186 65.7121 9.74067 58.0148 8.26257C50.3175 6.78446 42.3613 7.46373 35.026 10.2253C27.6906 12.9868 21.2618 17.7231 16.4503 23.9104C11.6388 30.0977 8.63202 37.495 7.7624 45.2846C6.89277 53.0742 8.19418 60.9525 11.5227 68.0485C14.319 74.0098 18.4543 79.2239 23.5863 83.2951C25.2088 84.5823 25.6996 86.8954 24.5604 88.625Z" fill="#EB0045"/>
</svg>
