<svg width="100" height="79" viewBox="0 0 100 79" fill="none" xmlns="http://www.w3.org/2000/svg">
<path d="M12.7168 77.3684C11.0473 78.5939 8.68714 78.2407 7.59012 76.484C3.38853 69.7559 0.838136 62.1079 0.173988 54.1676C-0.594602 44.9785 1.19288 35.7559 5.3388 27.5194C9.48472 19.2829 15.8276 12.3533 23.6661 7.49673C31.5047 2.64018 40.5336 0.04586 49.7546 0.000602228C58.9756 -0.0446555 68.0295 2.46091 75.9154 7.24028C83.8012 12.0197 90.2118 18.8867 94.4384 27.0821C98.665 35.2775 100.543 44.4821 99.8645 53.6783C99.2783 61.6248 96.8032 69.2974 92.6678 76.0665C91.5881 77.8338 89.2315 78.2102 87.55 77.0011C85.8685 75.792 85.5014 73.4561 86.5577 71.6746C89.8985 66.0398 91.9005 59.6932 92.3848 53.1265C92.9614 45.3098 91.3652 37.4859 87.7726 30.5198C84.18 23.5537 78.731 17.7167 72.0281 13.6542C65.3251 9.59177 57.6293 7.46204 49.7914 7.50051C41.9536 7.53898 34.279 9.74415 27.6162 13.8722C20.9535 18.0003 15.562 23.8904 12.038 30.8915C8.51394 37.8925 6.99459 45.7317 7.64789 53.5424C8.19671 60.104 10.2609 66.4307 13.6568 72.0324C14.7305 73.8034 14.3864 76.1428 12.7168 77.3684Z" fill="#EB0045"/>
</svg>
