<svg width="30" height="30" viewBox="0 0 30 30" fill="none" xmlns="http://www.w3.org/2000/svg">
<g clip-path="url(#clip0)">
<path d="M0 15.0293C0 12.3097 0.67339 9.79506 2.02017 7.48536C3.36695 5.17567 5.19193 3.35068 7.49512 2.01041C9.79831 0.670137 12.3032 0 15.0098 0C17.0397 0 18.9785 0.396877 20.8263 1.19063C22.674 1.98439 24.2681 3.0514 25.6083 4.39167C26.9486 5.73195 28.0156 7.32921 28.8094 9.18347C29.6031 11.0377 30 12.9863 30 15.0293C30 17.0592 29.6031 19.0013 28.8094 20.8556C28.0156 22.7098 26.9486 24.3038 25.6083 25.6376C24.2681 26.9714 22.674 28.0319 20.8263 28.8191C18.9785 29.6064 17.0397 30 15.0098 30C12.9668 30 11.0182 29.6031 9.16396 28.8094C7.30969 28.0156 5.71243 26.9486 4.37215 25.6083C3.03188 24.2681 1.96812 22.6773 1.18087 20.836C0.393624 18.9948 0 17.0592 0 15.0293ZM3.29863 15.0293C3.29863 18.1913 4.45023 20.9369 6.75342 23.2661C9.0566 25.5693 11.8087 26.7209 15.0098 26.7209C17.1178 26.7209 19.0696 26.1971 20.8653 25.1496C22.661 24.1021 24.0859 22.6805 25.1399 20.8848C26.1939 19.0891 26.7209 17.1373 26.7209 15.0293C26.7209 12.9213 26.1939 10.9662 25.1399 9.16396C24.0859 7.36174 22.661 5.93689 20.8653 4.8894C19.0696 3.8419 17.1178 3.31815 15.0098 3.31815C12.9018 3.31815 10.9499 3.8419 9.1542 4.8894C7.35849 5.93689 5.93364 7.36174 4.87964 9.16396C3.82563 10.9662 3.29863 12.9213 3.29863 15.0293ZM13.8582 15.0293V6.14834C13.8582 5.83604 13.9655 5.57254 14.1802 5.35784C14.3949 5.14314 14.6584 5.03578 14.9707 5.03578C15.283 5.03578 15.5465 5.14314 15.7612 5.35784C15.9759 5.57254 16.0833 5.83604 16.0833 6.14834V14.3461L20.8653 17.1373C21.1256 17.2934 21.2947 17.5179 21.3728 17.8107C21.4509 18.1034 21.4118 18.38 21.2557 18.6402C21.0475 19.0176 20.7287 19.2062 20.2993 19.2062C20.0781 19.2062 19.8894 19.1542 19.7332 19.0501L14.6389 16.0833C14.4177 16.0182 14.2323 15.8881 14.0826 15.6929C13.933 15.4977 13.8582 15.2765 13.8582 15.0293Z" fill="#EB0045"/>
</g>
<defs>
<clipPath id="clip0">
<path d="M0 0H30V30H0V0Z" fill="white"/>
</clipPath>
</defs>
</svg>
