<svg width="17" height="15" viewBox="0 0 17 15" fill="none" xmlns="http://www.w3.org/2000/svg">
<path fill-rule="evenodd" clip-rule="evenodd" d="M2.60667 2.45684C2.26577 2.45684 1.98333 2.73928 1.98333 3.08017V11.9202C1.98333 12.2611 2.26577 12.5435 2.60667 12.5435H14.3933C14.7342 12.5435 15.0167 12.2611 15.0167 11.9202V3.08017C15.0167 2.73928 14.7342 2.45684 14.3933 2.45684H2.60667ZM0.283333 3.08017C0.283333 1.80039 1.32689 0.756836 2.60667 0.756836H14.3933C15.6731 0.756836 16.7167 1.80039 16.7167 3.08017V11.9202C16.7167 13.1999 15.6731 14.2435 14.3933 14.2435H2.60667C1.32689 14.2435 0.283333 13.1999 0.283333 11.9202V3.08017Z" fill="#EB0045"/>
<path fill-rule="evenodd" clip-rule="evenodd" d="M0.436929 2.5931C0.706136 2.20852 1.23614 2.11499 1.62072 2.38419L8.49994 7.19965L15.3792 2.38419C15.7637 2.11499 16.2937 2.20852 16.563 2.5931C16.8322 2.97768 16.7386 3.50768 16.3541 3.77689L8.98738 8.93355C8.69471 9.13842 8.30517 9.13842 8.0125 8.93355L0.645833 3.77689C0.261251 3.50768 0.167722 2.97768 0.436929 2.5931Z" fill="#EB0045"/>
</svg>
