<svg width="100" height="85" viewBox="0 0 100 85" fill="none" xmlns="http://www.w3.org/2000/svg">
<path d="M8.56144 70.5404C6.70583 71.4602 4.44173 70.7059 3.66355 68.7866C0.683116 61.4355 -0.512382 53.4626 0.200526 45.5265C1.02554 36.3423 4.37423 27.5652 9.87637 20.1655C15.3785 12.7659 22.8198 7.03182 31.3774 3.59741C39.9351 0.162994 49.2759 -0.838023 58.3669 0.705029C67.458 2.24808 75.9454 6.27509 82.8905 12.3408C89.8357 18.4066 94.9683 26.2748 97.7207 35.0756C100.473 43.8763 100.738 53.2668 98.4865 62.2088C96.5409 69.9357 92.7817 77.0676 87.5426 83.0236C86.1747 84.5786 83.7885 84.5436 82.3403 83.0631C80.8921 81.5825 80.9327 79.2183 82.2799 77.6453C86.541 72.6698 89.6058 66.7626 91.2136 60.3775C93.1274 52.7768 92.9021 44.7949 90.5626 37.3142C88.223 29.8336 83.8604 23.1456 77.957 17.9897C72.0536 12.8338 64.8393 9.41087 57.1119 8.09927C49.3845 6.78768 41.4449 7.63855 34.1708 10.5578C26.8968 13.4771 20.5717 18.351 15.8949 24.6407C11.2181 30.9305 8.37171 38.391 7.67045 46.1975C7.08133 52.7556 8.02537 59.3432 10.4061 65.446C11.1588 67.3754 10.4171 69.6206 8.56144 70.5404Z" fill="#EB0045"/>
</svg>
