<svg width="29" height="29" viewBox="0 0 29 29" fill="none" xmlns="http://www.w3.org/2000/svg">
<path d="M22.3637 15.4296C22.2278 15.2934 22.0663 15.1853 21.8885 15.1116C21.7107 15.0379 21.5201 14.9999 21.3276 14.9999C21.1351 14.9999 20.9446 15.0379 20.7668 15.1116C20.589 15.1853 20.4275 15.2934 20.2915 15.4296L17.9555 17.7656C16.8724 17.4432 14.8515 16.7105 13.5706 15.4296C12.2898 14.1487 11.557 12.1278 11.2346 11.0448L13.5706 8.70873C13.7069 8.57275 13.8149 8.41124 13.8886 8.23345C13.9624 8.05566 14.0003 7.86508 14.0003 7.67261C14.0003 7.48014 13.9624 7.28955 13.8886 7.11176C13.8149 6.93398 13.7069 6.77247 13.5706 6.63649L7.70857 0.774418C7.57259 0.638204 7.41108 0.53014 7.23329 0.456409C7.0555 0.382678 6.86492 0.344727 6.67245 0.344727C6.47998 0.344727 6.28939 0.382678 6.1116 0.456409C5.93382 0.53014 5.77231 0.638204 5.63633 0.774418L1.66185 4.7489C1.10495 5.3058 0.791328 6.0708 0.803052 6.85192C0.836759 8.93882 1.38926 16.1873 7.10185 21.8999C12.8144 27.6124 20.0629 28.1635 22.1512 28.1986H22.1923C22.9661 28.1986 23.6974 27.8938 24.2513 27.3398L28.2258 23.3654C28.362 23.2294 28.4701 23.0679 28.5438 22.8901C28.6176 22.7123 28.6555 22.5217 28.6555 22.3292C28.6555 22.1368 28.6176 21.9462 28.5438 21.7684C28.4701 21.5906 28.362 21.4291 28.2258 21.2931L22.3637 15.4296ZM22.1776 25.2661C20.3487 25.2354 14.0909 24.7444 9.17409 19.8261C4.24116 14.8932 3.7634 8.61347 3.73409 6.82114L6.67245 3.88278L10.4623 7.67261L8.56736 9.56752C8.39511 9.73965 8.26846 9.95198 8.19886 10.1853C8.12926 10.4187 8.11891 10.6657 8.16874 10.9041C8.20391 11.0726 9.06417 15.0691 11.4969 17.5018C13.9297 19.9346 17.9262 20.7948 18.0947 20.83C18.3329 20.8813 18.5802 20.8717 18.8137 20.8023C19.0473 20.7329 19.2597 20.6059 19.4312 20.4329L21.3276 18.538L25.1174 22.3278L22.1776 25.2661Z" fill="#EB0045"/>
</svg>
