<svg width="100" height="91" viewBox="0 0 100 91" fill="none" xmlns="http://www.w3.org/2000/svg">
<path d="M5.14198 61.2615C3.13325 61.7658 1.08126 60.5474 0.728895 58.5065C-0.620656 50.6899 -0.0938625 42.645 2.28989 35.0419C5.04851 26.2431 10.1866 18.3785 17.136 12.3176C24.0855 6.25679 32.5757 2.23577 41.6679 0.699134C50.76 -0.837499 60.1001 0.170112 68.6553 3.61057C77.2106 7.05102 84.6478 12.7903 90.1447 20.1939C95.6416 27.5975 98.9841 36.3769 99.8026 45.5616C100.621 54.7464 98.8838 63.9785 94.7828 72.2375C91.2389 79.3741 86.0494 85.5439 79.6639 90.2499C77.9967 91.4786 75.6725 90.9371 74.5722 89.1825C73.4718 87.4279 74.0141 85.1264 75.6649 83.8757C80.8863 79.9199 85.1369 74.7993 88.0653 68.9019C91.5513 61.8818 93.028 54.0344 92.3322 46.2274C91.6365 38.4204 88.7954 30.9578 84.123 24.6648C79.4506 18.3718 73.129 13.4934 65.857 10.569C58.5851 7.6446 50.646 6.78813 42.9177 8.09426C35.1893 9.4004 27.9727 12.8183 22.0656 17.97C16.1586 23.1217 11.7912 29.8066 9.44641 37.2856C7.47658 43.5685 6.99857 50.2063 8.02754 56.6756C8.35285 58.721 7.15072 60.7572 5.14198 61.2615Z" fill="#EB0045"/>
</svg>
