<svg width="17" height="17" viewBox="0 0 17 17" fill="none" xmlns="http://www.w3.org/2000/svg">
<path d="M8.49999 10.1667C10.3383 10.1667 11.8333 8.67167 11.8333 6.83333C11.8333 4.995 10.3383 3.5 8.49999 3.5C6.66166 3.5 5.16666 4.995 5.16666 6.83333C5.16666 8.67167 6.66166 10.1667 8.49999 10.1667ZM8.49999 5.16667C9.41916 5.16667 10.1667 5.91417 10.1667 6.83333C10.1667 7.7525 9.41916 8.5 8.49999 8.5C7.58082 8.5 6.83332 7.7525 6.83332 6.83333C6.83332 5.91417 7.58082 5.16667 8.49999 5.16667Z" fill="#EB0045"/>
<path d="M8.01667 16.6787C8.15771 16.7794 8.3267 16.8335 8.50001 16.8335C8.67332 16.8335 8.8423 16.7794 8.98334 16.6787C9.23667 16.4995 15.1908 12.2003 15.1667 6.83366C15.1667 3.15783 12.1758 0.166992 8.50001 0.166992C4.82417 0.166992 1.83334 3.15783 1.83334 6.82949C1.80917 12.2003 7.76334 16.4995 8.01667 16.6787ZM8.50001 1.83366C11.2575 1.83366 13.5 4.07616 13.5 6.83783C13.5175 10.5362 9.84334 13.857 8.50001 14.9462C7.15751 13.8562 3.48251 10.5345 3.50001 6.83366C3.50001 4.07616 5.74251 1.83366 8.50001 1.83366Z" fill="#EB0045"/>
</svg>
