<svg width="16" height="16" viewBox="0 0 16 16" fill="none" xmlns="http://www.w3.org/2000/svg">
<path d="M7.59897 0.00232818C6.31497 0.0178282 3.55447 0.228828 2.01047 1.64533C0.861968 2.78333 0.460968 4.46583 0.413968 6.54633C0.374968 8.61933 0.327968 12.5123 4.08047 13.5723V15.1868C4.08047 15.1868 4.05697 15.8328 4.48397 15.9653C5.00997 16.1318 5.30947 15.6348 5.80947 15.1008L6.74197 14.0463C9.30947 14.2598 11.276 13.7678 11.5025 13.6948C12.0235 13.5283 14.958 13.1533 15.4375 9.25983C15.9295 5.23883 15.198 2.70533 13.8775 1.55933H13.8695C13.471 1.19233 11.8695 0.0253282 8.29147 0.0123282C8.29147 0.0123282 8.02597 -0.00567182 7.59897 0.00182818V0.00232818ZM7.64297 1.13283C8.00747 1.13033 8.22897 1.14583 8.22897 1.14583C11.2575 1.15383 12.703 2.06533 13.044 2.37233C14.156 3.32533 14.729 5.60933 14.3095 8.96633C13.911 12.2213 11.531 12.4273 11.0905 12.5678C10.903 12.6278 9.17097 13.0548 6.98897 12.9143C6.98897 12.9143 5.36397 14.8753 4.85597 15.3803C4.77547 15.4688 4.68147 15.4948 4.62147 15.4818C4.53547 15.4608 4.50947 15.3543 4.51447 15.2083L4.52997 12.5288C1.34747 11.6488 1.53497 8.32833 1.56897 6.59383C1.60797 4.85933 1.93347 3.44033 2.90247 2.47933C4.20697 1.29983 6.55097 1.14083 7.64197 1.13283H7.64297ZM7.88297 2.86683C7.85677 2.86656 7.83079 2.87149 7.80651 2.88131C7.78222 2.89114 7.76013 2.90567 7.74149 2.92408C7.72285 2.94249 7.70804 2.9644 7.69791 2.98855C7.68778 3.01271 7.68253 3.03863 7.68247 3.06483C7.68247 3.17683 7.77347 3.26533 7.88297 3.26533C8.37872 3.2559 8.87143 3.34471 9.33269 3.52664C9.79395 3.70857 10.2146 3.98002 10.5705 4.32533C11.297 5.03083 11.651 5.97883 11.6645 7.21833C11.6645 7.32783 11.753 7.41883 11.865 7.41883V7.41083C11.9178 7.41096 11.9685 7.39022 12.006 7.35313C12.0436 7.31604 12.0649 7.26561 12.0655 7.21283C12.0897 6.6294 11.9951 6.04713 11.7874 5.50141C11.5796 4.95569 11.2631 4.45791 10.857 4.03833C10.0655 3.26483 9.06247 2.86633 7.88297 2.86633V2.86683ZM5.24747 3.32533C5.10594 3.30465 4.9616 3.33306 4.83847 3.40583H4.82797C4.5421 3.5734 4.28457 3.78519 4.06497 4.03333C3.88247 4.24433 3.78347 4.45783 3.75747 4.66333C3.74197 4.78583 3.75247 4.90833 3.78897 5.02533L3.80197 5.03333C4.00747 5.63733 4.27597 6.21833 4.60397 6.76533C5.02648 7.53381 5.54644 8.24451 6.15097 8.87983L6.16897 8.90583L6.19747 8.92683L6.21547 8.94783L6.23647 8.96583C6.87408 9.57212 7.58651 10.0945 8.35647 10.5203C9.23647 10.9993 9.77047 11.2258 10.091 11.3198V11.3248C10.185 11.3533 10.2705 11.3663 10.3565 11.3663C10.6296 11.3463 10.8882 11.2354 11.091 11.0513C11.338 10.8317 11.5474 10.5731 11.711 10.2858V10.2808C11.8645 9.99183 11.8125 9.71833 11.591 9.53333C11.1474 9.14558 10.6677 8.80117 10.1585 8.50483C9.81747 8.31983 9.47097 8.43183 9.33047 8.61933L9.03097 8.99683C8.87747 9.18433 8.59847 9.15833 8.59847 9.15833L8.59047 9.16333C6.50997 8.63183 5.95497 6.52533 5.95497 6.52533C5.95497 6.52533 5.92897 6.23883 6.12147 6.09283L6.49647 5.79083C6.67597 5.64483 6.80097 5.29883 6.60847 4.95733C6.31417 4.4474 5.97052 3.9676 5.58247 3.52483C5.49763 3.42044 5.37862 3.34942 5.24647 3.32433L5.24747 3.32533ZM8.22897 3.91933C7.96347 3.91933 7.96347 4.32033 8.23147 4.32033C8.56161 4.32568 8.88746 4.39605 9.19039 4.52739C9.49333 4.65874 9.76741 4.8485 9.99697 5.08583C10.2064 5.31683 10.3673 5.58752 10.4702 5.88185C10.5731 6.17618 10.6159 6.48817 10.596 6.79933C10.5969 6.85199 10.6184 6.9022 10.6559 6.9392C10.6933 6.97621 10.7438 6.99707 10.7965 6.99733L10.8045 7.00783C10.8575 7.00744 10.9083 6.98619 10.9458 6.94867C10.9833 6.91115 11.0046 6.86038 11.005 6.80733C11.023 6.01283 10.776 5.34633 10.2915 4.81233C9.80447 4.27833 9.12497 3.97883 8.25747 3.91933H8.22897ZM8.55747 4.99733C8.28397 4.98933 8.27347 5.39833 8.54447 5.40633C9.20347 5.44033 9.52347 5.77333 9.56547 6.45833C9.56638 6.51032 9.58761 6.5599 9.62462 6.59644C9.66162 6.63297 9.71146 6.65357 9.76347 6.65383H9.77147C9.7982 6.65268 9.82444 6.64622 9.84866 6.63482C9.87287 6.62343 9.89457 6.60732 9.91249 6.58745C9.93041 6.56757 9.94419 6.54432 9.95303 6.51907C9.96187 6.49381 9.96558 6.46704 9.96397 6.44033C9.91697 5.54733 9.42997 5.04433 8.56547 4.99783H8.55747V4.99733Z" fill="#253746"/>
</svg>
