<svg width="16" height="10" viewBox="0 0 16 10" fill="none" xmlns="http://www.w3.org/2000/svg">
<path d="M15.1842 1.14161C15.2893 0.792859 15.1842 0.537109 14.6877 0.537109H13.043C12.6245 0.537109 12.4332 0.75836 12.3282 1.00136C12.3282 1.00136 11.492 3.04061 10.307 4.36286C9.9245 4.74761 9.74975 4.86911 9.54125 4.86911C9.437 4.86911 9.2855 4.74761 9.2855 4.39886V1.14161C9.2855 0.723109 9.16475 0.537109 8.816 0.537109H6.2315C5.9705 0.537109 5.813 0.730609 5.813 0.915109C5.813 1.31111 6.4055 1.40261 6.46625 2.51861V4.93961C6.46625 5.46986 6.371 5.56661 6.161 5.56661C5.60375 5.56661 4.24775 3.51986 3.443 1.17686C3.28625 0.721609 3.128 0.53786 2.708 0.53786H1.064C0.59375 0.53786 0.5 0.75911 0.5 1.00211C0.5 1.43861 1.05725 3.59861 3.09575 6.45536C4.45475 8.40611 6.368 9.46361 8.111 9.46361C9.15575 9.46361 9.28475 9.22886 9.28475 8.82386V7.34936C9.28475 6.87986 9.3845 6.78536 9.71525 6.78536C9.95825 6.78536 10.3767 6.90836 11.3525 7.84811C12.467 8.96261 12.6515 9.46286 13.2778 9.46286H14.9218C15.3912 9.46286 15.626 9.22811 15.491 8.76461C15.3433 8.30336 14.8108 7.63211 14.1042 6.83786C13.7203 6.38486 13.1465 5.89736 12.9718 5.65361C12.728 5.33936 12.7985 5.20061 12.9718 4.92161C12.9725 4.92236 14.9757 2.10086 15.1842 1.14161Z" fill="#EB0045"/>
</svg>
