<svg width="16" height="16" viewBox="0 0 16 16" fill="none" xmlns="http://www.w3.org/2000/svg">
<path d="M12.2395 8.7434C12.1624 8.66621 12.0709 8.60498 11.9701 8.5632C11.8694 8.52142 11.7614 8.49991 11.6523 8.49991C11.5433 8.49991 11.4353 8.52142 11.3345 8.5632C11.2338 8.60498 11.1422 8.66621 11.0652 8.7434L9.74143 10.0672C9.12772 9.88445 7.98252 9.46922 7.25669 8.7434C6.53087 8.01758 6.11564 6.87238 5.93294 6.25867L7.25669 4.93491C7.33388 4.85786 7.39512 4.76634 7.4369 4.66559C7.47868 4.56484 7.50019 4.45685 7.50019 4.34778C7.50019 4.23871 7.47868 4.13071 7.4369 4.02997C7.39512 3.92922 7.33388 3.8377 7.25669 3.76064L3.93486 0.438804C3.8578 0.361617 3.76628 0.30038 3.66553 0.258599C3.56478 0.216818 3.45679 0.195312 3.34772 0.195312C3.23865 0.195312 3.13066 0.216818 3.02991 0.258599C2.92916 0.30038 2.83764 0.361617 2.76059 0.438804L0.508379 2.69101C0.192804 3.00659 0.0150854 3.44009 0.0217291 3.88272C0.0408296 5.0653 0.353913 9.17275 3.59105 12.4099C6.82818 15.647 10.9356 15.9593 12.119 15.9792H12.1423C12.5808 15.9792 12.9952 15.8065 13.3091 15.4925L15.5613 13.2403C15.6385 13.1633 15.6997 13.0718 15.7415 12.971C15.7833 12.8703 15.8048 12.7623 15.8048 12.6532C15.8048 12.5441 15.7833 12.4361 15.7415 12.3354C15.6997 12.2346 15.6385 12.1431 15.5613 12.0661L12.2395 8.7434ZM12.134 14.3174C11.0976 14.3 7.55151 14.0218 4.76532 11.2348C1.96999 8.43946 1.69926 4.88093 1.68265 3.86528L3.34772 2.20021L5.49529 4.34778L4.4215 5.42156C4.32389 5.5191 4.25213 5.63942 4.21269 5.77166C4.17325 5.90389 4.16738 6.04387 4.19562 6.17894C4.21555 6.27445 4.70303 8.53911 6.08159 9.91767C7.46016 11.2962 9.72482 11.7837 9.82032 11.8036C9.95531 11.8327 10.0954 11.8273 10.2278 11.788C10.3601 11.7486 10.4805 11.6766 10.5777 11.5786L11.6523 10.5048L13.7999 12.6524L12.134 14.3174Z" fill="#EB0045"/>
</svg>
