<svg width="69" height="61" viewBox="0 0 69 61" fill="none" xmlns="http://www.w3.org/2000/svg">
<path d="M22.1404 15.3155C23.258 11.1338 21.6347 -0.793279 11.1332 1.08535C4.99592 2.18382 -0.304773 11.8141 0.0136435 21.276C0.182217 26.4001 4.75866 34.3889 10.7524 40.8549C20.2174 51.0657 29.5951 58.2369 29.3266 54.8104C28.8709 48.9499 25.5868 22.8612 20.3111 22.9424C17.539 22.9861 13.9365 25.907 12.9251 27.9978C12.2071 29.4833 13.9615 28.9028 16.6275 30.2884C21.2726 32.6975 23.3017 39.6316 23.002 40.8549C22.4276 43.1704 15.204 38.8078 11.3205 29.7516C7.28726 20.3585 10.1655 13.5305 12.6504 13.4868C14.6171 13.4556 16.1093 16.9195 16.4901 19.4098C16.9833 22.5617 21.0478 19.3973 22.1404 15.3155Z" fill="white"/>
<path d="M21.4787 2.09027C20.6484 2.66447 23.0334 3.98762 25.3622 17.3502C26.6046 24.4778 28.5151 36.018 29.8013 47.0713C30.5006 53.1066 31.7867 58.7363 32.4985 59.504C33.3101 60.3715 33.7971 60.7335 35.0208 60.2404C36.8439 59.5102 40.4152 57.0761 43.5681 54.5172C48.4817 50.529 50.3798 48.8688 50.5733 47.1524C50.7731 45.3986 44.3673 40.6116 41.4641 44.8619C38.1301 49.7426 34.409 56.4083 33.5224 44.9493C32.4922 31.7052 34.6525 14.1485 33.1478 10.6284C30.1884 3.70053 23.1457 0.935631 21.4787 2.09027Z" fill="white"/>
<path d="M44.9289 29.845C45.0164 33.5523 43.1808 35.3747 41.0767 35.2125C37.7864 34.9503 39.6158 16.1079 40.6584 15.309C41.8884 14.3666 44.8415 26.1938 44.9289 29.845ZM38.9415 5.89721C38.1985 6.58999 36.1382 9.14891 35.7948 10.8216C34.39 17.662 34.5773 38.252 34.9769 44.0501C35.1642 46.7463 35.8572 48.5064 37.3369 47.5203C39.5346 46.0598 40.2214 41.6098 44.442 41.0668C47.008 40.736 50.9039 44.3871 52.0028 45.3046C53.3326 46.4155 56.5855 43.8566 55.9424 39.8248C54.213 28.8588 42.8873 2.21485 38.9415 5.89721Z" fill="white"/>
<path d="M43.7304 6.47792C57.1976 27.2863 55.2496 39.619 58.8209 39.438C60.0196 39.3756 70.3463 24.1594 68.0987 10.7719C67.493 7.16445 62.8417 3.5258 59.9572 2.15273C57.054 0.767169 55.6055 0.785892 56.4796 2.5272C62.2735 14.0548 59.9322 27.7169 58.1341 25.1954C56.0176 22.2308 54.6315 11.8079 53.6638 5.02995C53.3766 3.02026 53.1643 1.27271 52.7397 0.717237C52.1404 -0.0629192 48.1196 0.592412 45.2413 2.43358C42.232 4.35589 42.7689 4.9925 43.7304 6.47792Z" fill="white"/>
</svg>
