<svg width="340" height="97" viewBox="0 0 340 97" fill="none" xmlns="http://www.w3.org/2000/svg">
<path d="M125.06 59.5898V30.3398H134.84C137.94 30.3398 140.68 30.8598 143.06 31.8998C145.44 32.9398 147.31 34.5398 148.67 36.6998C150.03 38.8598 150.71 41.6398 150.71 45.0298C150.71 48.3098 150.03 51.0198 148.67 53.1898C147.31 55.3498 145.43 56.9598 143.03 58.0098C140.63 59.0598 137.88 59.5898 134.78 59.5898H125.06ZM129.27 55.8098H134.71C138.37 55.8098 141.21 54.9098 143.24 53.1098C145.27 51.3098 146.29 48.6398 146.29 45.1098C146.29 41.5398 145.3 38.8198 143.33 36.9298C141.36 35.0398 138.44 34.0998 134.58 34.0998H129.27V55.8098Z" fill="#253746"/>
<path d="M169.44 60.3301C167.33 60.3301 165.38 59.9301 163.56 59.1401C161.75 58.3501 160.17 57.2501 158.82 55.8301C157.47 54.4101 156.42 52.7701 155.66 50.9201C154.9 49.0601 154.52 47.0701 154.52 44.9301C154.52 42.8001 154.89 40.8001 155.64 38.9401C156.39 37.0801 157.44 35.4501 158.8 34.0501C160.16 32.6501 161.74 31.5501 163.56 30.7601C165.37 29.9701 167.33 29.5801 169.44 29.5801C171.55 29.5801 173.5 29.9701 175.32 30.7601C177.14 31.5501 178.72 32.6501 180.08 34.0501C181.44 35.4501 182.5 37.0801 183.26 38.9401C184.02 40.8001 184.4 42.7901 184.4 44.9301C184.4 47.0601 184.02 49.0601 183.26 50.9201C182.5 52.7801 181.44 54.4101 180.08 55.8301C178.72 57.2501 177.13 58.3501 175.32 59.1401C173.5 59.9401 171.54 60.3301 169.44 60.3301ZM169.44 56.3901C171.57 56.3901 173.43 55.8601 175.01 54.8101C176.59 53.7601 177.82 52.3601 178.69 50.6201C179.57 48.8801 180 46.9701 180 44.9001C180 42.7901 179.57 40.8701 178.71 39.1301C177.85 37.3901 176.63 36.0001 175.05 34.9601C173.47 33.9201 171.6 33.4001 169.44 33.4001C167.3 33.4001 165.45 33.9201 163.87 34.9601C162.29 36.0001 161.07 37.3901 160.21 39.1301C159.35 40.8701 158.92 42.7901 158.92 44.9001C158.92 46.9801 159.35 48.8801 160.21 50.6201C161.07 52.3601 162.29 53.7601 163.87 54.8101C165.45 55.8601 167.3 56.3901 169.44 56.3901Z" fill="#253746"/>
<path d="M187.68 55.2001L190.66 52.4801C191.22 53.0901 191.86 53.7101 192.59 54.3201C193.32 54.9301 194.18 55.4501 195.16 55.8601C196.14 56.2701 197.26 56.4701 198.52 56.4701C200.45 56.4701 201.95 56.0201 203.04 55.1301C204.12 54.2401 204.66 53.0601 204.66 51.6001C204.66 49.9601 204.05 48.7501 202.84 47.9601C201.63 47.1701 199.85 46.5301 197.51 46.0301C195.02 45.5001 193 44.5501 191.44 43.1601C189.88 41.7701 189.09 39.9201 189.09 37.6101C189.09 36.1801 189.46 34.8501 190.19 33.6401C190.92 32.4301 192.02 31.4501 193.48 30.7001C194.94 29.9501 196.74 29.5801 198.87 29.5801C200.77 29.5801 202.34 29.8401 203.59 30.3501C204.83 30.8601 205.8 31.4401 206.51 32.0801C207.21 32.7201 207.71 33.2501 208 33.6601L205.19 36.2501C204.96 35.9601 204.56 35.5801 204.01 35.1101C203.45 34.6401 202.74 34.2301 201.88 33.8601C201.02 33.4901 199.96 33.3101 198.7 33.3101C197.47 33.3101 196.46 33.5201 195.67 33.9501C194.88 34.3701 194.3 34.9001 193.92 35.5301C193.54 36.1601 193.35 36.8101 193.35 37.4801C193.35 38.9101 193.95 39.9901 195.15 40.7001C196.35 41.4201 198.06 42.0201 200.28 42.5201C201.74 42.8401 203.13 43.3501 204.45 44.0301C205.77 44.7201 206.84 45.6701 207.67 46.8801C208.5 48.0901 208.92 49.6901 208.92 51.6801C208.92 53.3801 208.47 54.8701 207.56 56.1501C206.65 57.4401 205.43 58.4501 203.88 59.2001C202.33 59.9501 200.58 60.3201 198.62 60.3201C196.81 60.3201 195.19 60.0601 193.77 59.5301C192.35 59.0001 191.14 58.3401 190.13 57.5301C189.11 56.7501 188.3 55.9601 187.68 55.2001Z" fill="#253746"/>
<path d="M221.32 59.5898V34.0198H210.84V30.3398H235.97V34.0198H225.53V59.5898H221.32Z" fill="#253746"/>
<path d="M233.78 59.5898L245.23 30.3398H249.53L260.98 59.5898H256.29L253.26 51.4298H241.24L238.21 59.5898H233.78ZM242.46 47.8798H251.98L247.24 35.0298L242.46 47.8798Z" fill="#253746"/>
<path d="M269.35 59.5898L258.04 30.3398H262.73L271.63 54.3799L280.53 30.3498H284.96L273.65 59.5999H269.35V59.5898Z" fill="#253746"/>
<path d="M288.34 59.5898V30.3398H292.51V43.6298L304.75 30.3398H309.57L298.69 42.2698L310.88 59.5898H305.84L295.84 45.2498L292.51 48.8498V59.5999H288.34V59.5898Z" fill="#253746"/>
<path d="M312.59 59.6001L324.04 30.3501H328.34L339.79 59.6001H335.1L332.07 51.4401H320.05L317.02 59.6001H312.59ZM321.27 47.8901H330.79L326.05 35.0401L321.27 47.8901Z" fill="#253746"/>
<path d="M136.27 84.8401L137.93 86.5901C137.3 87.2901 136.54 87.8601 135.62 88.3001C134.7 88.7301 133.64 88.9501 132.43 88.9501C130.92 88.9501 129.61 88.6201 128.52 87.9701C127.42 87.3201 126.57 86.4301 125.97 85.3101C125.37 84.1901 125.06 82.9301 125.06 81.5201C125.06 80.0501 125.38 78.7401 126.01 77.5901C126.64 76.4401 127.52 75.5301 128.64 74.8601C129.76 74.1901 131.04 73.8501 132.49 73.8501C133.64 73.8501 134.67 74.0601 135.57 74.4801C136.48 74.9001 137.25 75.4801 137.9 76.2001L136.12 77.9201C135.7 77.4001 135.18 76.9801 134.58 76.6801C133.98 76.3801 133.29 76.2301 132.53 76.2301C131.52 76.2301 130.67 76.4701 129.96 76.9401C129.25 77.4101 128.72 78.0401 128.36 78.8301C128 79.6201 127.82 80.4601 127.82 81.3701C127.82 82.2601 128 83.1001 128.36 83.8901C128.72 84.6901 129.25 85.3301 129.95 85.8201C130.64 86.3101 131.5 86.5601 132.5 86.5601C133.29 86.5601 134.01 86.4001 134.66 86.0901C135.3 85.7801 135.84 85.3701 136.27 84.8401Z" fill="#253746"/>
<path d="M150.74 74.2998H160.89V88.5298H158.17V76.7398H153.15C153.01 79.1798 152.73 81.2798 152.32 83.0598C151.91 84.8298 151.27 86.1998 150.42 87.1598C149.56 88.1198 148.4 88.5998 146.93 88.5998C146.83 88.5998 146.73 88.5998 146.63 88.5998C146.53 88.5998 146.43 88.5898 146.33 88.5698V86.1798H146.48C147.61 86.1798 148.46 85.6898 149.03 84.6998C149.6 83.7098 150.01 82.3298 150.24 80.5398C150.47 78.7498 150.64 76.6698 150.74 74.2998Z" fill="#253746"/>
<path d="M178.45 88.9601C177.18 88.9601 176.04 88.6701 175.03 88.1001C174.02 87.5301 173.2 86.7501 172.55 85.7701C171.91 84.7901 171.5 83.7001 171.34 82.4901H167.89V88.5301H165.17V74.3001H167.89V80.1301H171.37C171.55 78.9401 171.96 77.8701 172.61 76.9301C173.25 75.9801 174.08 75.2301 175.07 74.6801C176.07 74.1301 177.19 73.8501 178.44 73.8501C179.83 73.8501 181.06 74.1901 182.14 74.8801C183.22 75.5701 184.07 76.4801 184.69 77.6101C185.31 78.7501 185.63 80.0101 185.63 81.4001C185.63 82.7701 185.32 84.0301 184.69 85.1801C184.06 86.3301 183.21 87.2501 182.14 87.9301C181.07 88.6101 179.84 88.9601 178.45 88.9601ZM178.42 86.6001C179.35 86.6001 180.14 86.3501 180.81 85.8401C181.48 85.3401 181.99 84.6901 182.35 83.9101C182.71 83.1201 182.89 82.3001 182.89 81.4301C182.89 80.5601 182.71 79.7301 182.35 78.9401C181.99 78.1401 181.47 77.4901 180.79 76.9801C180.12 76.4701 179.31 76.2101 178.39 76.2101C177.48 76.2101 176.7 76.4601 176.03 76.9701C175.36 77.4701 174.85 78.1201 174.49 78.9001C174.13 79.6901 173.95 80.5101 173.95 81.3801C173.95 82.2501 174.13 83.0801 174.49 83.8701C174.85 84.6701 175.37 85.3201 176.03 85.8301C176.7 86.3401 177.49 86.6001 178.42 86.6001Z" fill="#253746"/>
<path d="M197 74.8999C198.31 74.8999 199.46 75.1999 200.44 75.8099C201.43 76.4099 202.2 77.2399 202.77 78.2899C203.33 79.3399 203.62 80.5199 203.62 81.8299C203.62 83.1799 203.32 84.3899 202.73 85.4699C202.14 86.5499 201.3 87.3999 200.24 88.0199C199.17 88.6399 197.92 88.9599 196.49 88.9599C195.62 88.9599 194.76 88.8099 193.91 88.5199C193.05 88.2299 192.27 87.7299 191.55 87.0399C190.83 86.3499 190.26 85.3899 189.83 84.1699C189.4 82.9499 189.18 81.4299 189.18 79.5899C189.18 73.0199 192.28 69.4299 198.49 68.7999L202.03 68.4399L202.36 70.7699L198.76 71.1599C196.38 71.4199 194.66 72.0499 193.58 73.0499C192.5 74.0499 191.88 75.5699 191.72 77.6299C192.3 76.7399 193.06 76.0699 193.99 75.6099C194.91 75.1399 195.92 74.8999 197 74.8999ZM196.43 86.5999C197.32 86.5999 198.09 86.3899 198.76 85.9699C199.43 85.5499 199.94 84.9799 200.3 84.2599C200.66 83.5499 200.84 82.7399 200.84 81.8599C200.84 80.5499 200.45 79.4599 199.66 78.5799C198.87 77.6999 197.8 77.2699 196.43 77.2699C195.52 77.2699 194.74 77.4799 194.07 77.8899C193.41 78.2999 192.9 78.8599 192.54 79.5499C192.19 80.2499 192.01 81.0199 192.01 81.8599C192.01 82.7099 192.19 83.4899 192.55 84.2199C192.91 84.9499 193.42 85.5199 194.08 85.9599C194.74 86.3799 195.52 86.5999 196.43 86.5999Z" fill="#253746"/>
<path d="M214.08 88.9601C212.65 88.9601 211.37 88.6201 210.24 87.9301C209.11 87.2501 208.23 86.3301 207.6 85.1801C206.97 84.0301 206.65 82.7701 206.65 81.4001C206.65 80.0101 206.97 78.7501 207.6 77.6101C208.23 76.4701 209.12 75.5601 210.24 74.8801C211.37 74.2001 212.65 73.8501 214.08 73.8501C215.51 73.8501 216.78 74.1901 217.9 74.8801C219.02 75.5701 219.9 76.4801 220.54 77.6101C221.18 78.7501 221.51 80.0101 221.51 81.4001C221.51 82.7701 221.19 84.0301 220.54 85.1801C219.89 86.3301 219.01 87.2501 217.9 87.9301C216.78 88.6101 215.51 88.9601 214.08 88.9601ZM214.08 86.6001C215.07 86.6001 215.91 86.3501 216.6 85.8401C217.29 85.3401 217.83 84.6901 218.2 83.8901C218.57 83.0901 218.76 82.2601 218.76 81.4001C218.76 80.5301 218.57 79.7101 218.2 78.9201C217.83 78.1301 217.29 77.4801 216.58 76.9701C215.87 76.4601 215.04 76.2001 214.07 76.2001C213.1 76.2001 212.27 76.4501 211.56 76.9501C210.85 77.4501 210.32 78.1001 209.94 78.8801C209.57 79.6701 209.38 80.5001 209.38 81.3901C209.38 82.2401 209.57 83.0601 209.95 83.8501C210.33 84.6501 210.87 85.3001 211.57 85.8101C212.28 86.3401 213.11 86.6001 214.08 86.6001Z" fill="#253746"/>
<path d="M225.17 88.5398V74.2998H232.6C234.09 74.2998 235.21 74.6398 235.95 75.3098C236.7 75.9798 237.07 76.8398 237.07 77.8598C237.07 78.6698 236.85 79.3498 236.42 79.9098C235.99 80.4698 235.45 80.8598 234.8 81.0598C235.59 81.2398 236.27 81.6098 236.85 82.1598C237.43 82.7098 237.73 83.5298 237.73 84.6198C237.73 85.5498 237.5 86.2998 237.05 86.8698C236.6 87.4398 236 87.8598 235.25 88.1198C234.5 88.3798 233.7 88.5098 232.83 88.5098L225.17 88.5398ZM227.8 76.4198V80.2598H232C232.73 80.2598 233.3 80.0998 233.74 79.7798C234.17 79.4598 234.39 78.9498 234.39 78.2698C234.39 77.5898 234.18 77.1098 233.76 76.8298C233.34 76.5598 232.81 76.4198 232.19 76.4198H227.8ZM227.8 82.3098V86.4198H232.48C233.12 86.4198 233.71 86.2798 234.23 86.0098C234.75 85.7398 235.02 85.1898 235.02 84.3598C235.02 83.4898 234.71 82.9398 234.08 82.6798C233.45 82.4298 232.63 82.2998 231.6 82.2998L227.8 82.3098Z" fill="#253746"/>
<path d="M241.36 74.2998H244.08V79.0798H248.13C249.74 79.0798 251.01 79.4998 251.94 80.3498C252.87 81.1998 253.33 82.3298 253.33 83.7698C253.33 85.2398 252.84 86.3998 251.86 87.2598C250.88 88.1198 249.61 88.5398 248.04 88.5398H241.36V74.2998ZM244.08 81.2198V86.3898H247.71C248.72 86.3898 249.46 86.1598 249.95 85.7098C250.43 85.2598 250.67 84.6298 250.67 83.8198C250.67 82.9898 250.42 82.3498 249.91 81.8998C249.41 81.4498 248.67 81.2198 247.7 81.2198H244.08Z" fill="#253746"/>
<path d="M269.98 88.9601C268.71 88.9601 267.57 88.6701 266.56 88.1001C265.55 87.5301 264.73 86.7501 264.08 85.7701C263.44 84.7901 263.03 83.7001 262.87 82.4901H259.42V88.5301H256.7V74.3001H259.42V80.1301H262.9C263.08 78.9401 263.49 77.8701 264.14 76.9301C264.78 75.9801 265.61 75.2301 266.6 74.6801C267.6 74.1301 268.72 73.8501 269.97 73.8501C271.36 73.8501 272.59 74.1901 273.67 74.8801C274.75 75.5701 275.6 76.4801 276.22 77.6101C276.84 78.7501 277.16 80.0101 277.16 81.4001C277.16 82.7701 276.85 84.0301 276.22 85.1801C275.59 86.3301 274.74 87.2501 273.67 87.9301C272.6 88.6201 271.37 88.9601 269.98 88.9601ZM269.95 86.6001C270.88 86.6001 271.67 86.3501 272.34 85.8401C273.01 85.3401 273.52 84.6901 273.88 83.9101C274.24 83.1201 274.42 82.3001 274.42 81.4301C274.42 80.5601 274.24 79.7301 273.88 78.9401C273.52 78.1401 273 77.4901 272.32 76.9801C271.65 76.4701 270.84 76.2101 269.92 76.2101C269.01 76.2101 268.23 76.4601 267.56 76.9701C266.89 77.4701 266.38 78.1201 266.02 78.9001C265.66 79.6901 265.48 80.5101 265.48 81.3801C265.48 82.2501 265.66 83.0801 266.02 83.8701C266.38 84.6701 266.9 85.3201 267.56 85.8301C268.23 86.3501 269.02 86.6001 269.95 86.6001Z" fill="#253746"/>
<path d="M36.34 24.56C38.13 17.86 35.53 -1.25004 18.71 1.75996C8.88002 3.51996 0.390026 18.95 0.900026 34.11C1.17003 42.32 8.50002 55.1199 18.1 65.4799C33.26 81.84 48.28 93.3299 47.85 87.84C47.12 78.45 41.86 36.65 33.41 36.78C28.97 36.85 23.2 41.53 21.58 44.88C20.43 47.26 23.24 46.33 27.51 48.55C34.95 52.41 38.2 63.52 37.72 65.4799C36.8 69.1899 25.23 62.2 19.01 47.69C12.55 32.64 17.16 21.7 21.14 21.63C24.29 21.58 26.68 27.13 27.29 31.12C28.08 36.17 34.59 31.1 36.34 24.56Z" fill="#EB0045"/>
<path d="M35.2801 3.3699C33.9501 4.2899 37.7701 6.4099 41.5001 27.8199C43.4901 39.2399 46.5501 57.7299 48.6101 75.4399C49.7301 85.1099 51.7901 94.1299 52.9301 95.3599C54.2301 96.7499 55.0101 97.3299 56.9701 96.5399C59.8901 95.3699 65.6101 91.4699 70.6601 87.3699C78.5301 80.9799 81.5701 78.3199 81.8801 75.5699C82.2001 72.7599 71.9401 65.0899 67.2901 71.8999C61.9501 79.7199 55.9901 90.3999 54.5701 72.0399C52.9201 50.8199 56.3801 22.6899 53.9701 17.0499C49.2301 5.9499 37.9501 1.5199 35.2801 3.3699Z" fill="#EB0045"/>
<path d="M72.84 47.8401C72.98 53.7801 70.04 56.7001 66.67 56.4401C61.4 56.0201 64.33 25.8301 66 24.5501C67.97 23.0401 72.7 41.9901 72.84 47.8401ZM63.25 9.47009C62.06 10.5801 58.76 14.6801 58.21 17.3601C55.96 28.3201 56.26 61.3101 56.9 70.6001C57.2 74.9201 58.31 77.7401 60.68 76.1601C64.2 73.8201 65.3 66.6901 72.06 65.8201C76.17 65.2901 82.41 71.1401 84.17 72.6101C86.3 74.3901 91.51 70.2901 90.48 63.8301C87.71 46.2601 69.57 3.57009 63.25 9.47009Z" fill="#EB0045"/>
<path d="M70.92 10.4002C92.49 43.7402 89.37 63.5002 95.09 63.2102C97.01 63.1102 113.55 38.7302 109.95 17.2802C108.98 11.5002 101.53 5.67018 96.91 3.47018C92.26 1.25018 89.94 1.28018 91.34 4.07018C100.62 22.5402 96.87 44.4302 93.99 40.3902C90.6 35.6402 88.38 18.9402 86.83 8.08018C86.37 4.86018 86.03 2.06018 85.35 1.17018C84.39 -0.0798203 77.95 0.97018 73.34 3.92018C68.52 7.00018 69.38 8.02018 70.92 10.4002Z" fill="#EB0045"/>
</svg>
