<svg display="none" xmlns="http://www.w3.org/2000/svg">
    <symbol id="vk" viewBox="0 0 16 10">
        <g>
            <path d="M15.1842 1.14161C15.2893 0.792859 15.1842 0.537109 14.6877 0.537109H13.043C12.6245 0.537109 12.4332 0.75836 12.3282 1.00136C12.3282 1.00136 11.492 3.04061 10.307 4.36286C9.9245 4.74761 9.74975 4.86911 9.54125 4.86911C9.437 4.86911 9.2855 4.74761 9.2855 4.39886V1.14161C9.2855 0.723109 9.16475 0.537109 8.816 0.537109H6.2315C5.9705 0.537109 5.813 0.730609 5.813 0.915109C5.813 1.31111 6.4055 1.40261 6.46625 2.51861V4.93961C6.46625 5.46986 6.371 5.56661 6.161 5.56661C5.60375 5.56661 4.24775 3.51986 3.443 1.17686C3.28625 0.721609 3.128 0.53786 2.708 0.53786H1.064C0.59375 0.53786 0.5 0.75911 0.5 1.00211C0.5 1.43861 1.05725 3.59861 3.09575 6.45536C4.45475 8.40611 6.368 9.46361 8.111 9.46361C9.15575 9.46361 9.28475 9.22886 9.28475 8.82386V7.34936C9.28475 6.87986 9.3845 6.78536 9.71525 6.78536C9.95825 6.78536 10.3767 6.90836 11.3525 7.84811C12.467 8.96261 12.6515 9.46286 13.2778 9.46286H14.9218C15.3912 9.46286 15.626 9.22811 15.491 8.76461C15.3433 8.30336 14.8108 7.63211 14.1042 6.83786C13.7203 6.38486 13.1465 5.89736 12.9718 5.65361C12.728 5.33936 12.7985 5.20061 12.9718 4.92161C12.9725 4.92236 14.9757 2.10086 15.1842 1.14161Z" />
        </g>
    </symbol>

    <symbol id="fb" viewBox="0 0 8 14">
        <g>
            <path d="M5.04777 13.7479V7.60088H7.12153L7.42978 5.19413H5.04777V3.66113C5.04777 2.96663 5.24127 2.49113 6.23803 2.49113H7.50102V0.345377C6.8865 0.27952 6.26881 0.247721 5.65077 0.250127C3.81777 0.250127 2.55927 1.36913 2.55927 3.42338V5.18963H0.499023V7.59638H2.56377V13.7479H5.04777Z" fill="#253746"/>
        </g>
    </symbol>


    <symbol id="inst" viewBox="0 0 20 20">
        <g>
            <path d="M9.99918 6.14746C8.97721 6.14746 7.9971 6.55344 7.27446 7.27608C6.55182 7.99872 6.14584 8.97883 6.14584 10.0008C6.14584 11.0228 6.55182 12.0029 7.27446 12.7255C7.9971 13.4482 8.97721 13.8541 9.99918 13.8541C11.0211 13.8541 12.0013 13.4482 12.7239 12.7255C13.4465 12.0029 13.8525 11.0228 13.8525 10.0008C13.8525 8.97883 13.4465 7.99872 12.7239 7.27608C12.0013 6.55344 11.0211 6.14746 9.99918 6.14746ZM9.99918 12.5033C9.33525 12.5033 8.69852 12.2396 8.22905 11.7701C7.75959 11.3006 7.49584 10.6639 7.49584 9.99996C7.49584 9.33604 7.75959 8.6993 8.22905 8.22984C8.69852 7.76037 9.33525 7.49663 9.99918 7.49663C10.6631 7.49663 11.2998 7.76037 11.7693 8.22984C12.2388 8.6993 12.5025 9.33604 12.5025 9.99996C12.5025 10.6639 12.2388 11.3006 11.7693 11.7701C11.2998 12.2396 10.6631 12.5033 9.99918 12.5033Z"/>
            <path d="M14.005 6.90409C14.5011 6.90409 14.9033 6.50189 14.9033 6.00575C14.9033 5.50962 14.5011 5.10742 14.005 5.10742C13.5089 5.10742 13.1067 5.50962 13.1067 6.00575C13.1067 6.50189 13.5089 6.90409 14.005 6.90409Z" fill="#253746"/>
            <path d="M17.1108 5.09224C16.9179 4.59406 16.6231 4.14164 16.2453 3.76396C15.8675 3.38627 15.4149 3.09163 14.9167 2.89891C14.3336 2.68004 13.7177 2.56169 13.095 2.54891C12.2925 2.51391 12.0383 2.50391 10.0033 2.50391C7.96835 2.50391 7.70751 2.50391 6.91168 2.54891C6.2895 2.56104 5.67398 2.67941 5.09168 2.89891C4.59329 3.09141 4.14065 3.38596 3.76279 3.76368C3.38493 4.1414 3.0902 4.59393 2.89751 5.09224C2.6786 5.67525 2.56052 6.29127 2.54835 6.91391C2.51251 7.71557 2.50168 7.96974 2.50168 10.0056C2.50168 12.0406 2.50168 12.2997 2.54835 13.0972C2.56085 13.7206 2.67835 14.3356 2.89751 14.9197C3.09074 15.4179 3.38576 15.8702 3.76371 16.2479C4.14166 16.6256 4.59423 16.9202 5.09251 17.1131C5.67371 17.3407 6.28949 17.4676 6.91334 17.4881C7.71585 17.5231 7.97001 17.5339 10.005 17.5339C12.04 17.5339 12.3008 17.5339 13.0967 17.4881C13.7193 17.4754 14.3352 17.3574 14.9183 17.1389C15.4165 16.9457 15.8689 16.6508 16.2467 16.2731C16.6244 15.8953 16.9193 15.4429 17.1125 14.9447C17.3317 14.3614 17.4492 13.7464 17.4617 13.1231C17.4975 12.3214 17.5083 12.0672 17.5083 10.0314C17.5083 7.99557 17.5083 7.73724 17.4617 6.93974C17.452 6.3083 17.3333 5.68328 17.1108 5.09224ZM16.0958 13.0356C16.0905 13.5158 16.0028 13.9916 15.8367 14.4422C15.7115 14.7663 15.5199 15.0606 15.2742 15.3061C15.0285 15.5517 14.7341 15.7431 14.41 15.8681C13.9644 16.0334 13.4936 16.1211 13.0183 16.1272C12.2267 16.1639 12.0033 16.1731 9.97335 16.1731C7.94168 16.1731 7.73418 16.1731 6.92751 16.1272C6.45245 16.1214 5.98195 16.0338 5.53668 15.8681C5.21142 15.7439 4.91585 15.5528 4.66909 15.3072C4.42233 15.0616 4.22987 14.7669 4.10418 14.4422C3.94038 13.9964 3.85277 13.5263 3.84501 13.0514C3.80918 12.2597 3.80085 12.0364 3.80085 10.0064C3.80085 7.97557 3.80085 7.76807 3.84501 6.96057C3.8504 6.48059 3.93806 6.00509 4.10418 5.55474C4.35835 4.89724 4.87918 4.37974 5.53668 4.12807C5.98217 3.96319 6.45253 3.87554 6.92751 3.86891C7.72001 3.83307 7.94251 3.82307 9.97335 3.82307C12.0042 3.82307 12.2125 3.82307 13.0183 3.86891C13.4937 3.87462 13.9645 3.9623 14.41 4.12807C14.7341 4.2533 15.0285 4.44491 15.2742 4.6906C15.5198 4.93629 15.7115 5.23063 15.8367 5.55474C16.0005 6.00053 16.0881 6.47071 16.0958 6.94557C16.1317 7.73807 16.1408 7.96057 16.1408 9.99141C16.1408 12.0214 16.1408 12.2397 16.105 13.0364H16.0958V13.0356Z"/>
        </g>
    </symbol>

    <symbol id="vb" viewBox="0 0 16 16">
        <g>
            <path d="M7.59897 0.00232818C6.31497 0.0178282 3.55447 0.228828 2.01047 1.64533C0.861968 2.78333 0.460968 4.46583 0.413968 6.54633C0.374968 8.61933 0.327968 12.5123 4.08047 13.5723V15.1868C4.08047 15.1868 4.05697 15.8328 4.48397 15.9653C5.00997 16.1318 5.30947 15.6348 5.80947 15.1008L6.74197 14.0463C9.30947 14.2598 11.276 13.7678 11.5025 13.6948C12.0235 13.5283 14.958 13.1533 15.4375 9.25983C15.9295 5.23883 15.198 2.70533 13.8775 1.55933H13.8695C13.471 1.19233 11.8695 0.0253282 8.29147 0.0123282C8.29147 0.0123282 8.02597 -0.00567182 7.59897 0.00182818V0.00232818ZM7.64297 1.13283C8.00747 1.13033 8.22897 1.14583 8.22897 1.14583C11.2575 1.15383 12.703 2.06533 13.044 2.37233C14.156 3.32533 14.729 5.60933 14.3095 8.96633C13.911 12.2213 11.531 12.4273 11.0905 12.5678C10.903 12.6278 9.17097 13.0548 6.98897 12.9143C6.98897 12.9143 5.36397 14.8753 4.85597 15.3803C4.77547 15.4688 4.68147 15.4948 4.62147 15.4818C4.53547 15.4608 4.50947 15.3543 4.51447 15.2083L4.52997 12.5288C1.34747 11.6488 1.53497 8.32833 1.56897 6.59383C1.60797 4.85933 1.93347 3.44033 2.90247 2.47933C4.20697 1.29983 6.55097 1.14083 7.64197 1.13283H7.64297ZM7.88297 2.86683C7.85677 2.86656 7.83079 2.87149 7.80651 2.88131C7.78222 2.89114 7.76013 2.90567 7.74149 2.92408C7.72285 2.94249 7.70804 2.9644 7.69791 2.98855C7.68778 3.01271 7.68253 3.03863 7.68247 3.06483C7.68247 3.17683 7.77347 3.26533 7.88297 3.26533C8.37872 3.2559 8.87143 3.34471 9.33269 3.52664C9.79395 3.70857 10.2146 3.98002 10.5705 4.32533C11.297 5.03083 11.651 5.97883 11.6645 7.21833C11.6645 7.32783 11.753 7.41883 11.865 7.41883V7.41083C11.9178 7.41096 11.9685 7.39022 12.006 7.35313C12.0436 7.31604 12.0649 7.26561 12.0655 7.21283C12.0897 6.6294 11.9951 6.04713 11.7874 5.50141C11.5796 4.95569 11.2631 4.45791 10.857 4.03833C10.0655 3.26483 9.06247 2.86633 7.88297 2.86633V2.86683ZM5.24747 3.32533C5.10594 3.30465 4.9616 3.33306 4.83847 3.40583H4.82797C4.5421 3.5734 4.28457 3.78519 4.06497 4.03333C3.88247 4.24433 3.78347 4.45783 3.75747 4.66333C3.74197 4.78583 3.75247 4.90833 3.78897 5.02533L3.80197 5.03333C4.00747 5.63733 4.27597 6.21833 4.60397 6.76533C5.02648 7.53381 5.54644 8.24451 6.15097 8.87983L6.16897 8.90583L6.19747 8.92683L6.21547 8.94783L6.23647 8.96583C6.87408 9.57212 7.58651 10.0945 8.35647 10.5203C9.23647 10.9993 9.77047 11.2258 10.091 11.3198V11.3248C10.185 11.3533 10.2705 11.3663 10.3565 11.3663C10.6296 11.3463 10.8882 11.2354 11.091 11.0513C11.338 10.8317 11.5474 10.5731 11.711 10.2858V10.2808C11.8645 9.99183 11.8125 9.71833 11.591 9.53333C11.1474 9.14558 10.6677 8.80117 10.1585 8.50483C9.81747 8.31983 9.47097 8.43183 9.33047 8.61933L9.03097 8.99683C8.87747 9.18433 8.59847 9.15833 8.59847 9.15833L8.59047 9.16333C6.50997 8.63183 5.95497 6.52533 5.95497 6.52533C5.95497 6.52533 5.92897 6.23883 6.12147 6.09283L6.49647 5.79083C6.67597 5.64483 6.80097 5.29883 6.60847 4.95733C6.31417 4.4474 5.97052 3.9676 5.58247 3.52483C5.49763 3.42044 5.37862 3.34942 5.24647 3.32433L5.24747 3.32533ZM8.22897 3.91933C7.96347 3.91933 7.96347 4.32033 8.23147 4.32033C8.56161 4.32568 8.88746 4.39605 9.19039 4.52739C9.49333 4.65874 9.76741 4.8485 9.99697 5.08583C10.2064 5.31683 10.3673 5.58752 10.4702 5.88185C10.5731 6.17618 10.6159 6.48817 10.596 6.79933C10.5969 6.85199 10.6184 6.9022 10.6559 6.9392C10.6933 6.97621 10.7438 6.99707 10.7965 6.99733L10.8045 7.00783C10.8575 7.00744 10.9083 6.98619 10.9458 6.94867C10.9833 6.91115 11.0046 6.86038 11.005 6.80733C11.023 6.01283 10.776 5.34633 10.2915 4.81233C9.80447 4.27833 9.12497 3.97883 8.25747 3.91933H8.22897ZM8.55747 4.99733C8.28397 4.98933 8.27347 5.39833 8.54447 5.40633C9.20347 5.44033 9.52347 5.77333 9.56547 6.45833C9.56638 6.51032 9.58761 6.5599 9.62462 6.59644C9.66162 6.63297 9.71146 6.65357 9.76347 6.65383H9.77147C9.7982 6.65268 9.82444 6.64622 9.84866 6.63482C9.87287 6.62343 9.89457 6.60732 9.91249 6.58745C9.93041 6.56757 9.94419 6.54432 9.95303 6.51907C9.96187 6.49381 9.96558 6.46704 9.96397 6.44033C9.91697 5.54733 9.42997 5.04433 8.56547 4.99783H8.55747V4.99733Z"/>
        </g>
    </symbol>

    <symbol id="tg" viewBox="0 0 16 14">
        <g>
            <path d="M14.3018 0.97578L1.40725 5.94814C0.527253 6.3016 0.532344 6.79251 1.2458 7.01142L4.55634 8.04414L12.216 3.21142C12.5782 2.99105 12.9091 3.1096 12.6371 3.35105L6.43125 8.95178H6.4298L6.43125 8.95251L6.20289 12.3649C6.53743 12.3649 6.68507 12.2114 6.87271 12.0303L8.48071 10.4667L11.8254 12.9372C12.4422 13.2769 12.8851 13.1023 13.0385 12.3663L15.2342 2.01869C15.4589 1.1176 14.8902 0.709599 14.3018 0.97578Z"/>
        </g>
    </symbol>

</svg>
