<svg width="50" height="42" viewBox="0 0 50 42" fill="none" xmlns="http://www.w3.org/2000/svg">
<path d="M47.5484 10.7383H33.4839V8.76853H33.6129C34.9677 8.76853 36 7.68835 36.0645 6.35401V2.41453C36.0645 1.08018 34.9677 0 33.6129 0H2.45161C1.09678 0 0 1.08018 0 2.41453V6.35401C0 7.68835 1.09678 8.76853 2.45161 8.76853H2.70968V27.5129C2.70968 29.5461 4.3871 31.2617 6.51613 31.2617H16.6452V38.2511C16.6452 40.2844 18.3226 42 20.4516 42H43.6129C45.7419 42 47.4194 40.3479 47.4194 38.2511V19.5068H47.5484C48.9032 19.5068 49.9355 18.4266 50 17.0923V13.1528C50 11.8185 48.9032 10.7383 47.5484 10.7383ZM46.129 13.5976C46.7097 13.5976 47.1613 14.0424 47.1613 14.6142V15.6944C47.1613 16.2663 46.7097 16.711 46.129 16.711H33.4839V16.3933V13.5976H46.129ZM17.8065 16.711C17.2258 16.711 16.7742 16.2663 16.7742 15.7579V14.6142C16.7742 14.0424 17.2258 13.5976 17.8065 13.5976H30.5806V16.711H17.8065ZM30.6452 8.83207V10.7383H19.4839V8.76853L30.6452 8.83207C30.6452 8.76853 30.6452 8.83207 30.6452 8.83207ZM33.2258 3.81241V4.95613C33.2258 5.52799 32.7742 5.97277 32.1935 5.97277H19.4839V2.79576H32.1935C32.7742 2.79576 33.2258 3.24054 33.2258 3.81241ZM2.83871 3.81241C2.83871 3.24054 3.29032 2.79576 3.87097 2.79576H16.6452V5.97277H3.87097C3.29032 5.97277 2.83871 5.52799 2.83871 4.95613V3.81241ZM5.54839 26.115V8.83207V8.76853H16.6452V10.7383H16.3871C15.0323 10.7383 13.9355 11.8185 13.9355 13.1528V17.0923C13.9355 18.4266 15.0323 19.5068 16.3871 19.5068H16.6452V28.466H7.93549C6.58065 28.466 5.48387 27.4493 5.54839 26.115ZM19.4839 36.8532V30.0545V19.5703V19.5068H30.5806V39.2042H21.871C20.5161 39.2042 19.4194 38.1241 19.4839 36.8532ZM44.5806 19.5703V36.8532C44.5806 38.1241 43.5484 39.2042 42.1935 39.2042H33.4839V19.5068L44.5806 19.5703C44.5806 19.5068 44.5806 19.5703 44.5806 19.5703Z" fill="#253746"/>
</svg>
