<svg width="47" height="46" viewBox="0 0 47 46" fill="none" xmlns="http://www.w3.org/2000/svg">
<path d="M43.8114 28.3191H38.7734V11.5215H38.9009C40.2402 11.5215 41.2605 10.4639 41.3243 9.15738V5.30014C41.3243 3.99366 40.2402 2.93604 38.9009 2.93604H8.09906C6.75984 2.93604 5.67573 3.99366 5.67573 5.30014V9.15738C5.67573 10.4639 6.75984 11.5215 8.09906 11.5215H8.35416V28.3191H3.1886C1.40298 28.3191 0 29.9367 0 31.8653V39.5175C0 41.4462 1.46676 43.0637 3.1886 43.0637H9.05564C10.7137 43.0637 12.1167 41.7572 12.1167 40.0775V39.5175C12.1167 39.082 12.2442 38.7088 12.308 38.5221H34.692C34.8195 38.7088 34.8833 39.082 34.8833 39.5175V40.0775C34.8833 41.695 36.2225 43.0637 37.9444 43.0637H43.8114C45.5332 43.0637 46.9362 41.4462 47 39.5175V31.8653C47 29.9367 45.5332 28.3191 43.8114 28.3191ZM35.9674 11.5837V28.3191H24.9349V11.5215L35.9674 11.5837C35.9674 11.5215 35.9674 11.5215 35.9674 11.5837ZM38.5183 6.66884V7.78868C38.5183 8.3486 38.0719 8.78409 37.498 8.78409H24.9349V5.67342H37.498C38.0719 5.67342 38.5183 6.10892 38.5183 6.66884ZM8.48167 6.66884C8.48167 6.10892 8.9281 5.67342 9.50205 5.67342H22.1289V8.78409H9.50205C8.9281 8.78409 8.48167 8.3486 8.48167 7.78868V6.66884ZM11.1601 11.5837C11.1601 11.5215 11.1601 11.5215 11.1601 11.5837L22.1289 11.5215V28.3191H11.1601V11.5837ZM44.3854 39.5797C44.3854 40.1397 44.0665 40.5752 43.8114 40.5752H37.9444C37.6255 40.5752 37.4342 40.3263 37.4342 40.0775V39.5175C37.4342 37.4023 36.4776 35.9714 35.0746 35.9714H11.9254C10.5224 35.9714 9.56581 37.4023 9.56581 39.5175V40.0775C9.56581 40.3885 9.31073 40.5752 9.05564 40.5752H3.1886C2.93351 40.5752 2.61468 40.2019 2.61468 39.5797V31.9275C2.61468 31.3676 2.93351 30.9321 3.1886 30.9321H43.8114C44.0665 30.9321 44.3854 31.3054 44.3854 31.9275V39.5797Z" fill="#253746"/>
</svg>
