<svg width="44" height="42" viewBox="0 0 44 42" fill="none" xmlns="http://www.w3.org/2000/svg">
<path d="M40.997 0H35.2522C33.6202 0 32.2493 1.27273 32.2493 2.92727V4.9L31.0742 5.85454H11.7507V2.92727C11.7507 1.33636 10.4451 0 8.74777 0H3.00297C1.37092 0 0 1.27273 0 2.92727V39.0727C0 40.6636 1.30564 42 3.00297 42H8.74777C10.4451 42 11.7507 40.6636 11.7507 39.0727V36.9091L12.6647 36.1455H32.2493V39.0727C32.2493 40.6636 33.5549 42 35.2522 42H40.997C42.6291 42 44 40.6636 44 39.0727V2.92727C44 1.33636 42.6944 0 40.997 0ZM28.1365 8.33636L11.7507 22.1455V8.33636H28.1365ZM32.2493 8.33636V16.2909L11.7507 33.5364V25.5818L32.2493 8.33636ZM9.13947 39.0091C9.13947 39.2 8.94362 39.3909 8.74777 39.3909H3.00297C2.80713 39.3909 2.61128 39.2 2.61128 39.0091V2.86364C2.61128 2.67273 2.80713 2.48181 3.00297 2.48181H8.74777C8.94362 2.48181 9.13947 2.67273 9.13947 2.86364V39.0091ZM15.7982 33.5364L32.2493 19.6636V33.5364H15.7982ZM41.3887 39.0091C41.3887 39.2 41.1929 39.3909 40.997 39.3909H35.2522C35.0564 39.3909 34.8605 39.2 34.8605 39.0091V2.86364C34.8605 2.67273 35.0564 2.48181 35.2522 2.48181H40.997C41.1929 2.48181 41.3887 2.67273 41.3887 2.86364V39.0091Z" fill="#253746"/>
</svg>
