<svg width="33" height="42" viewBox="0 0 33 42" fill="none" xmlns="http://www.w3.org/2000/svg">
<path d="M27.6402 4.60194C24.6387 1.68932 20.7137 0 16.5 0C12.2863 0 8.36127 1.63107 5.35975 4.66019C0.626593 9.43689 -0.585551 16.6602 2.30052 22.7767C2.47369 23.1262 2.93546 24.0583 13.0944 40.0777C13.8448 41.301 15.1724 42 16.6154 42C18.0585 42 19.3861 41.2427 20.1364 40.0194C30.1223 24.0583 30.5263 23.1262 30.6995 22.7767C33.5856 16.7184 32.3734 9.37864 27.6402 4.60194ZM28.2752 21.6116C27.7557 22.6602 20.7714 33.9029 17.8853 38.5631C17.5967 39.0291 17.0772 39.2621 16.6154 39.2621C16.0959 39.2621 15.6342 39.0291 15.3456 38.5631C12.3441 33.8447 5.1866 22.6019 4.72483 21.5534C2.41597 16.6602 3.28179 10.6019 7.26457 6.52427C9.74659 3.96116 13.0944 2.67961 16.4423 2.67961C19.7901 2.67961 23.138 3.96116 25.7354 6.52427C29.8337 10.6019 30.6995 16.7184 28.2752 21.6116Z" fill="#253746"/>
<path d="M16.4422 6.93213C12.2863 6.93213 8.88074 10.369 8.88074 14.5632C8.88074 18.7574 12.2863 22.1943 16.4422 22.1943C20.6559 22.1943 24.0038 18.8156 24.0038 14.5632C24.0615 10.369 20.6559 6.93213 16.4422 6.93213ZM16.4422 19.5147C13.7293 19.5147 11.5359 17.3011 11.5359 14.5632C11.5359 11.8253 13.7293 9.61174 16.4422 9.61174C19.1552 9.61174 21.3486 11.8253 21.3486 14.5632C21.3486 17.3011 19.2129 19.5147 16.4422 19.5147Z" fill="#253746"/>
</svg>
