<svg width="58" height="46" viewBox="0 0 58 46" fill="none" xmlns="http://www.w3.org/2000/svg">
<path d="M50.7007 3H28.4182C24.3493 3 21.0553 6.30097 21.0553 10.3786V10.5728H18.4719C15.7592 10.5728 13.1111 11.6084 11.109 13.4207L5.942 18.1456C3.87521 20.0226 2.71265 22.6764 2.71265 25.5243V35.1683H1.4855C0.645866 35.1683 0 35.8155 0 36.657C0 37.4984 0.645866 38.1456 1.4855 38.1456H5.36071C5.4253 38.1456 5.48989 38.1456 5.55448 38.1456C5.61906 38.1456 5.68365 38.1456 5.68365 38.1456H7.03997C7.94419 40.9288 10.5923 43 13.6924 43C16.7926 43 19.4407 40.9288 20.3449 38.1456H27.3849C28.7412 38.2104 30.485 38.2751 32.8102 38.2751C33.1977 38.2751 33.5206 38.2751 33.8435 38.2751C34.8124 40.9935 37.3958 43 40.496 43C43.5962 43 46.2442 40.9288 47.1485 38.1456H50.6362C54.7051 38.1456 57.9991 34.8447 57.9991 30.767V10.4434C58.0637 6.30097 54.7697 3 50.7007 3ZM21.0553 21.3172H15.1133L16.5343 20.2168C17.2447 19.6343 18.1489 19.3107 19.0531 19.3107H21.0553V21.3172ZM13.6924 40.0227C11.4319 40.0227 9.62345 38.2104 9.62345 35.945C9.62345 33.6796 11.4319 31.8673 13.6924 31.8673C15.953 31.8673 17.7614 33.6796 17.7614 35.945C17.7614 38.2104 15.953 40.0227 13.6924 40.0227ZM13.6924 28.89C10.0756 28.89 7.10456 31.6731 6.71704 35.1683H5.68365V25.4595C5.68365 23.5178 6.52328 21.6408 7.94419 20.2816L13.1111 15.5566C14.5966 14.1974 16.4697 13.4854 18.4719 13.4854H21.0553V16.3333H19.0531C17.5031 16.3333 15.953 16.9159 14.7258 17.8867L11.4965 20.4757C10.7214 21.0583 10.4631 21.9644 10.786 22.8705C11.109 23.712 11.9486 24.2945 12.8528 24.2945H21.0553V35.1683H20.6678C20.2157 31.6731 17.3093 28.89 13.6924 28.89ZM40.496 40.0227C38.2355 40.0227 36.427 38.2104 36.427 35.945C36.4916 33.6796 38.3 31.8673 40.496 31.8673C42.7565 31.8673 44.565 33.6796 44.565 35.945C44.565 38.2104 42.7565 40.0227 40.496 40.0227ZM55.0927 30.7023C55.0927 33.1618 53.0905 35.1036 50.7007 35.1036H47.4714C47.0839 31.6084 44.0483 28.89 40.496 28.89C36.8791 28.89 33.8435 31.6731 33.5206 35.233C33.2623 35.233 33.0685 35.233 32.8102 35.233C29.1287 35.233 25.5118 35.1683 24.0263 35.1683V10.3139C24.0263 7.85437 26.0285 5.91262 28.4182 5.91262H50.7007V5.97735C53.155 5.97735 55.0927 7.98381 55.0927 10.3786V30.7023Z" fill="#253746"/>
</svg>
